<svg xmlns="http://www.w3.org/2000/svg" viewBox="0 0 300 300">
    <rect width="300" height="300" fill="#0b0f19"/>
    <g transform="translate(150, 150) scale(1.5)">
        <path d="M0,-25 L21.65,-12.5 L21.65,12.5 L0,25 L-21.65,12.5 L-21.65,-12.5 Z" fill="#0b0f19" stroke="#333333" stroke-width="2"/>
        <line x1="-21.65" y1="-12.5" x2="-40" y2="-35" stroke="#333333" stroke-width="1.5"/>
        <line x1="-21.65" y1="12.5" x2="-40" y2="35" stroke="#333333" stroke-width="1.5"/>
        <line x1="21.65" y1="-12.5" x2="40" y2="-35" stroke="#333333" stroke-width="1.5"/>
        <line x1="21.65" y1="12.5" x2="40" y2="35" stroke="#333333" stroke-width="1.5"/>
        <path d="M0,-12.5 L10.825,-6.25 L10.825,6.25 L0,12.5 L-10.825,6.25 L-10.825,-6.25 Z" transform="translate(-40, -35)" fill="#0b0f19" stroke="#333333" stroke-width="2"/>
        <path d="M0,-12.5 L10.825,-6.25 L10.825,6.25 L0,12.5 L-10.825,6.25 L-10.825,-6.25 Z" transform="translate(-40, 35)" fill="#0b0f19" stroke="#333333" stroke-width="2"/>
        <path d="M0,-12.5 L10.825,-6.25 L10.825,6.25 L0,12.5 L-10.825,6.25 L-10.825,-6.25 Z" transform="translate(40, -35)" fill="#0b0f19" stroke="#333333" stroke-width="2"/>
        <path d="M0,-12.5 L10.825,-6.25 L10.825,6.25 L0,12.5 L-10.825,6.25 L-10.825,-6.25 Z" transform="translate(40, 35)" fill="#0b0f19" stroke="#333333" stroke-width="2"/>
        <text x="0" y="2" font-family="Arial" font-size="20" font-weight="500" fill="#ff6b00" text-anchor="middle" dominant-baseline="middle" letter-spacing="1">RN</text>
    </g>
</svg>